<?xml version = "1.0" standalone = "no"?>
<svg xmlns="http://www.w3.org/2000/svg" xmlns:xlink="http://www.w3.org/1999/xlink" font-family="Arial" viewBox="-96 987 32 32" width="32" height="32"><g><g fill="none"><path d="M -94 992 L -66 992" stroke="#000000" stroke-width="2" stroke-linecap="round" stroke-linejoin="round"/></g></g><g><g fill="none"><path d="M -94 1014 L -66 1014" stroke="#000000" stroke-width="2" stroke-linecap="round" stroke-linejoin="round"/></g></g><g><g fill="none"><path d="M -91 1017 L -91 989" stroke="#000000" stroke-width="2" stroke-linecap="round" stroke-linejoin="round"/></g></g><g><g fill="none"><path d="M -69 1017 L -69 989" stroke="#000000" stroke-width="2" stroke-linecap="round" stroke-linejoin="round"/></g></g><rect width="22" height="22" transform="matrix(0 -1 1 0 -91 1014)" fill="#ffffff" stroke="#000000" stroke-linecap="butt" stroke-linejoin="round"/><g><clipPath id="clip-na5N3NS4VBAk6" stroke-width="2"><path clip-rule="evenodd" d="M -82.552632 992.947368 L -77.447368 992.947368 L -77.447368 1013.052632 L -82.552632 1013.052632 M -80 994 L -81.5 997 L -78.5 997 Z M -80 1012 L -78.5 1009 L -81.5 1009 Z"/></clipPath><g fill="none" clip-path="url(#clip-na5N3NS4VBAk6)"><path d="M -80 994 L -80 1012" stroke="#bfbfbf" stroke-width="2" stroke-linecap="butt" stroke-linejoin="miter"/></g><g fill="#bfbfbf" stroke="#bfbfbf" stroke-width="2" stroke-linecap="butt" stroke-linejoin="miter"><path d="M -80 994 L -81.5 997 L -78.5 997 Z"/><path d="M -80 1012 L -78.5 1009 L -81.5 1009 Z"/></g></g><g><clipPath id="clip-nUWZWnYN0O3pL" stroke-width="2"><path clip-rule="evenodd" d="M -90.052632 1000.447368 L -69.947368 1000.447368 L -69.947368 1005.552632 L -90.052632 1005.552632 M -89 1003 L -86 1004.5 L -86 1001.5 Z M -71 1003 L -74 1001.5 L -74 1004.5 Z"/></clipPath><g fill="none" clip-path="url(#clip-nUWZWnYN0O3pL)"><path d="M -89 1003 L -71 1003" stroke="#bfbfbf" stroke-width="2" stroke-linecap="butt" stroke-linejoin="miter"/></g><g fill="#bfbfbf" stroke="#bfbfbf" stroke-width="2" stroke-linecap="butt" stroke-linejoin="miter"><path d="M -89 1003 L -86 1004.5 L -86 1001.5 Z"/><path d="M -71 1003 L -74 1001.5 L -74 1004.5 Z"/></g></g></svg>