<?xml version = "1.0" standalone = "no"?>
<svg xmlns="http://www.w3.org/2000/svg" xmlns:xlink="http://www.w3.org/1999/xlink" font-family="Arial" viewBox="-96 945 32 32" width="32" height="32"><g><g fill="none"><path d="M -94 950 L -66 950" stroke="#000000" stroke-width="2" stroke-linecap="round" stroke-linejoin="round"/></g></g><g><g fill="none"><path d="M -94 972 L -66 972" stroke="#000000" stroke-width="2" stroke-linecap="round" stroke-linejoin="round"/></g></g><g><g fill="none"><path d="M -91 975 L -91 947" stroke="#000000" stroke-width="2" stroke-linecap="round" stroke-linejoin="round"/></g></g><g><g fill="none"><path d="M -69 975 L -69 947" stroke="#000000" stroke-width="2" stroke-linecap="round" stroke-linejoin="round"/></g></g><rect width="22" height="22" transform="matrix(0 -1 1 0 -91 972)" fill="#ffffff" stroke="#000000" stroke-linecap="butt" stroke-linejoin="round"/><g><clipPath id="clip-nF4Ppz7f6D5Cx" stroke-width="2"><path clip-rule="evenodd" d="M -82.552632 950.947368 L -77.447368 950.947368 L -77.447368 971.052632 L -82.552632 971.052632 M -80 952 L -81.5 955 L -78.5 955 Z M -80 970 L -78.5 967 L -81.5 967 Z"/></clipPath><g fill="none" clip-path="url(#clip-nF4Ppz7f6D5Cx)"><path d="M -80 952 L -80 970" stroke="#000000" stroke-width="2" stroke-linecap="butt" stroke-linejoin="miter"/></g><g fill="#000000" stroke="#000000" stroke-width="2" stroke-linecap="butt" stroke-linejoin="miter"><path d="M -80 952 L -81.5 955 L -78.5 955 Z"/><path d="M -80 970 L -78.5 967 L -81.5 967 Z"/></g></g><g><clipPath id="clip-nW2fYwcvRNnll" stroke-width="2"><path clip-rule="evenodd" d="M -90.052632 958.447368 L -69.947368 958.447368 L -69.947368 963.552632 L -90.052632 963.552632 M -89 961 L -86 962.5 L -86 959.5 Z M -71 961 L -74 959.5 L -74 962.5 Z"/></clipPath><g fill="none" clip-path="url(#clip-nW2fYwcvRNnll)"><path d="M -89 961 L -71 961" stroke="#000000" stroke-width="2" stroke-linecap="butt" stroke-linejoin="miter"/></g><g fill="#000000" stroke="#000000" stroke-width="2" stroke-linecap="butt" stroke-linejoin="miter"><path d="M -89 961 L -86 962.5 L -86 959.5 Z"/><path d="M -71 961 L -74 959.5 L -74 962.5 Z"/></g></g></svg>