<?xml version = "1.0" standalone = "no"?>
<svg xmlns="http://www.w3.org/2000/svg" xmlns:xlink="http://www.w3.org/1999/xlink" font-family="Arial" viewBox="-96 861 32 32" width="32" height="32"><g><g fill="none"><path d="M -94 866 L -66 866" stroke="#000000" stroke-width="2" stroke-linecap="round" stroke-linejoin="round"/></g></g><g><g fill="none"><path d="M -94 888 L -66 888" stroke="#000000" stroke-width="2" stroke-linecap="round" stroke-linejoin="round"/></g></g><g><g fill="none"><path d="M -91 891 L -91 863" stroke="#000000" stroke-width="2" stroke-linecap="round" stroke-linejoin="round"/></g></g><g><g fill="none"><path d="M -69 891 L -69 863" stroke="#000000" stroke-width="2" stroke-linecap="round" stroke-linejoin="round"/></g></g><rect width="12" height="22" transform="matrix(0 -1 1 0 -91 883)" fill="#ffffff" stroke="#000000" stroke-linecap="butt" stroke-linejoin="round"/><g><clipPath id="clip-nXY4puCJUbuaY" stroke-width="2"><path clip-rule="evenodd" d="M -90.052632 874.447368 L -69.947368 874.447368 L -69.947368 879.552632 L -90.052632 879.552632 M -89 877 L -86 878.5 L -86 875.5 Z M -71 877 L -74 875.5 L -74 878.5 Z"/></clipPath><g fill="none" clip-path="url(#clip-nXY4puCJUbuaY)"><path d="M -89 877 L -71 877" stroke="#000000" stroke-width="2" stroke-linecap="butt" stroke-linejoin="miter"/></g><g fill="#000000" stroke="#000000" stroke-width="2" stroke-linecap="butt" stroke-linejoin="miter"><path d="M -89 877 L -86 878.5 L -86 875.5 Z"/><path d="M -71 877 L -74 875.5 L -74 878.5 Z"/></g></g></svg>