<?xml version = "1.0" standalone = "no"?>
<svg xmlns="http://www.w3.org/2000/svg" xmlns:xlink="http://www.w3.org/1999/xlink" font-family="Arial" viewBox="-96 903 32 32" width="32" height="32"><g><g fill="none"><path d="M -94 908 L -66 908" stroke="#000000" stroke-width="2" stroke-linecap="round" stroke-linejoin="round"/></g></g><g><g fill="none"><path d="M -94 930 L -66 930" stroke="#000000" stroke-width="2" stroke-linecap="round" stroke-linejoin="round"/></g></g><g><g fill="none"><path d="M -91 933 L -91 905" stroke="#000000" stroke-width="2" stroke-linecap="round" stroke-linejoin="round"/></g></g><g><g fill="none"><path d="M -69 933 L -69 905" stroke="#000000" stroke-width="2" stroke-linecap="round" stroke-linejoin="round"/></g></g><rect width="22" height="12" transform="matrix(0 -1 1 0 -86 930)" fill="#ffffff" stroke="#000000" stroke-linecap="butt" stroke-linejoin="round"/><g><clipPath id="clip-nBW8xpAhX-vFk" stroke-width="2"><path clip-rule="evenodd" d="M -82.552632 908.947368 L -77.447368 908.947368 L -77.447368 929.052632 L -82.552632 929.052632 M -80 910 L -81.5 913 L -78.5 913 Z M -80 928 L -78.5 925 L -81.5 925 Z"/></clipPath><g fill="none" clip-path="url(#clip-nBW8xpAhX-vFk)"><path d="M -80 910 L -80 928" stroke="#000000" stroke-width="2" stroke-linecap="butt" stroke-linejoin="miter"/></g><g fill="#000000" stroke="#000000" stroke-width="2" stroke-linecap="butt" stroke-linejoin="miter"><path d="M -80 910 L -81.5 913 L -78.5 913 Z"/><path d="M -80 928 L -78.5 925 L -81.5 925 Z"/></g></g></svg>