<?xml version = "1.0" standalone = "no"?>
<svg xmlns="http://www.w3.org/2000/svg" xmlns:xlink="http://www.w3.org/1999/xlink" font-family="Arial" viewBox="0 0 32 32" width="32" height="32"><rect width="32" height="32" fill="none" stroke="none"/><g><g fill="none"><path d="M 21 25.797958971132708 A 5.319462151148483 5.319462151148483 0 0 1 18 26.81665382639195 L 18 29.856406460551014 A 13.999999999999972 13.999999999999972 0 0 1 13.999999999999996 29.856406460551014 L 13.999999999999993 26.816653826391956 A 10.99999999999997 10.99999999999997 0 0 1 9.765684291983924 25.062742832762275 L 7.616254591240384 27.212172533505807 A 14.000000000000464 14.000000000000464 0 0 1 4.787827466494193 24.383745408759616 L 6.937257167237725 22.234315708016076 A 10.999999999999925 10.999999999999925 0 0 1 5.183346173608037 18.000000000000004 L 2.143593539448993 18.000000000000007 A 14.00000000000002 14.00000000000002 0 0 1 2.143593539448993 13.999999999999996 L 5.183346173608033 13.999999999999996 A 10.999999999999806 10.999999999999806 0 0 1 6.937257167237732 9.765684291983934 L 4.787827466494193 7.6162545912403985 A 14.000000000000194 14.000000000000194 0 0 1 7.616254591240391 4.7878274664942015 L 9.76568429198393 6.937257167237737 A 10.999999999999643 10.999999999999643 0 0 1 14 5.183346173608036 L 14 2.1435935394489904 A 13.99999999999992 13.99999999999992 0 0 1 18 2.1435935394489904 L 18 5.183346173608039 A 10.999999999999952 10.999999999999952 0 0 1 22.23431570801607 6.93725716723774 L 24.38374540875961 4.787827466494201 A 14.000000000000119 14.000000000000119 0 0 1 27.2121725335058 7.616254591240391 L 25.06274283276226 9.76568429198393 A 11.000000000000103 11.000000000000103 0 0 1 26.816653826391942 14.000000000000004 L 29.856406460551 14.000000000000004 A 13.999999999999954 13.999999999999954 0 0 1 29.856406460551 18.000000000000007 L 26.816653826391935 18.000000000000007 A 5.41326794070588 5.41326794070588 0 0 1 25.7979589711327 21" stroke="#000000" stroke-width="2" stroke-linecap="round" stroke-linejoin="round"/></g><g fill="#000000" stroke="#000000" stroke-width="2" stroke-linecap="round" stroke-linejoin="round"/></g><g><g fill="none"><path d="M 10 15 A 6.080554691791436 6.080554691791436 0 1 0 15 10" stroke="#000000" stroke-width="2" stroke-linecap="round" stroke-linejoin="round"/></g><g fill="#000000" stroke="#000000" stroke-width="2" stroke-linecap="round" stroke-linejoin="round"/></g><g><g fill="none"><path d="M 20.999999999999996 21 L 28 28" stroke="#000000" stroke-width="2" stroke-linecap="round" stroke-linejoin="round"/></g><g fill="#000000" stroke="#000000" stroke-width="2" stroke-linecap="round" stroke-linejoin="round"/></g></svg>