<?xml version = "1.0" standalone = "no"?>
<svg xmlns="http://www.w3.org/2000/svg" xmlns:xlink="http://www.w3.org/1999/xlink" font-family="Arial" viewBox="0 0 32 32" width="32" height="32"><rect width="32" height="32" fill="none" stroke="none"/><ellipse cx="4.999999999999999" cy="4.999999999999995" rx="4.999999999999999" ry="4.999999999999995" transform="matrix(1 0 0 1 11 11)" fill="none" stroke="#000000" stroke-width="2" stroke-linecap="butt" stroke-linejoin="round"/><g><g fill="none"><path d="M 25.899494936611674 8.928932188134524 L 25.062742832762268 9.76568429198393 A 11.000000000000126 11.000000000000126 0 0 1 26.816653826391956 14 L 29.856406460551028 14 A 13.999999999999984 13.999999999999984 0 0 1 29.856406460551028 18.000000000000007 L 26.816653826391956 18.000000000000007 A 10.999999999999991 10.999999999999991 0 0 1 25.062742832762282 22.234315708016084 L 27.21217253350582 24.38374540875961 A 14.00000000000052 14.00000000000052 0 0 1 24.383745408759623 27.212172533505807 L 22.234315708016084 25.062742832762268 A 10.999999999999947 10.999999999999947 0 0 1 18.000000000000007 26.816653826391956 L 18.000000000000007 29.856406460551 A 14.000000000000007 14.000000000000007 0 0 1 14 29.856406460551 L 14 26.81665382639197 A 10.999999999999812 10.999999999999812 0 0 1 9.765684291983938 25.062742832762268 L 7.6162545912403985 27.212172533505807 A 14.000000000000158 14.000000000000158 0 0 1 4.787827466494207 24.38374540875961 L 6.937257167237739 22.23431570801607 A 10.999999999999645 10.999999999999645 0 0 1 5.183346173608037 18 L 2.143593539448993 18 A 13.99999999999992 13.99999999999992 0 0 1 2.143593539448993 14 L 5.183346173608044 14 A 10.999999999999954 10.999999999999954 0 0 1 6.937257167237746 9.76568429198393 L 4.787827466494207 7.616254591240391 A 14.000000000000082 14.000000000000082 0 0 1 7.616254591240391 4.7878274664942 L 9.76568429198393 6.937257167237739 A 11.000000000000123 11.000000000000123 0 0 1 14.000000000000007 5.183346173608058 L 14.000000000000007 2.143593539449 A 13.999999999999984 13.999999999999984 0 0 1 18.000000000000014 2.143593539449 L 18.000000000000014 5.183346173608065 A 10.999999999990644 10.999999999990644 0 0 1 22.19950431513385 6.913408436238186 L 24.38374540875961 4.787827466494207 A 13.99999999999938 13.99999999999938 0 0 1 27.212172533505807 7.616254591240406 L 25.899494936611674 8.928932188134524" stroke="#000000" stroke-width="2" stroke-linecap="round" stroke-linejoin="round"/></g><g fill="#000000" stroke="#000000" stroke-width="2" stroke-linecap="round" stroke-linejoin="round"/></g></svg>