<?xml version = "1.0" standalone = "no"?>
<svg xmlns="http://www.w3.org/2000/svg" viewBox="0 0 32 32" font-family="sans-serif" xmlns:xlink="http://www.w3.org/1999/xlink"><rect transform="matrix(1,0,0,1,4,4)" fill="rgb(0,0,0)" fill-opacity="0" stroke="rgb(0,0,0)" stroke-opacity="1" stroke-width="1.5" x="0" y="0" width="12" height="24"/><rect transform="matrix(1,0,0,1,16,4)" fill="rgb(0,0,0)" fill-opacity="0" stroke="rgb(0,0,0)" stroke-opacity="1" stroke-width="1.5" x="0" y="0" width="12" height="24"/><rect transform="matrix(1,0,0,1,7,12)" fill="rgb(0,0,0)" fill-opacity="0" stroke="rgb(0,0,0)" stroke-opacity="1" stroke-width="1.5" x="0" y="0" width="6" height="4"/><rect transform="matrix(1,0,0,1,7,19)" fill="rgb(0,0,0)" fill-opacity="0" stroke="rgb(0,0,0)" stroke-opacity="1" stroke-width="1.5" x="0" y="0" width="6" height="4"/><rect transform="matrix(1,0,0,1,4,4)" fill="rgb(0,0,0)" fill-opacity="0" stroke="rgb(0,0,0)" stroke-opacity="1" stroke-width="1.5" x="0" y="0" width="24" height="5"/><rect transform="matrix(1,0,0,1,19,12)" fill="rgb(0,0,0)" fill-opacity="0" stroke="rgb(0,0,0)" stroke-opacity="1" stroke-width="1.5" x="0" y="0" width="6" height="4"/></svg>