<?xml version = "1.0" standalone = "no"?>
<svg xmlns="http://www.w3.org/2000/svg" xmlns:xlink="http://www.w3.org/1999/xlink" font-family="Arial" viewBox="9 1509 32 32" width="32" height="32"><g><g fill="none"><path d="M 22 1516 L 37 1516" stroke="#000000" stroke-width="2" stroke-linecap="round" stroke-linejoin="round"/></g></g><ellipse cx="1" cy="1" rx="1" ry="1" transform="matrix(1 0 0 1 18 1517)" fill="#000000" stroke="none"/><g><g fill="none"><path d="M 22 1525 L 37 1525" stroke="#000000" stroke-width="2" stroke-linecap="round" stroke-linejoin="round"/></g></g><g><g fill="none"><path d="M 22 1534 L 37 1534" stroke="#000000" stroke-width="2" stroke-linecap="round" stroke-linejoin="round"/></g></g><g><g fill="none"><path d="M 14 1512 L 14 1518" stroke="#000000" stroke-width="1" stroke-linecap="round" stroke-linejoin="round"/></g></g><ellipse cx="1" cy="1" rx="1" ry="1" transform="matrix(1 0 0 1 18 1526)" fill="#000000" stroke="none"/><ellipse cx="1" cy="1" rx="1" ry="1" transform="matrix(1 0 0 1 18 1535)" fill="#000000" stroke="none"/><g><g fill="none"><path d="M 15.927131 1527 L 11.927131 1527 L 11.90552 1524 L 15.927131 1524 L 15.927131 1521 L 11.90552 1521" stroke="#000000" stroke-width="1" stroke-linecap="round" stroke-linejoin="round"/></g></g><g><g fill="none"><path d="M 11.90552 1530 L 15.927131 1530 L 16 1536 L 11.90552 1536" stroke="#000000" stroke-width="1" stroke-linecap="round" stroke-linejoin="round"/></g></g><g><g fill="none"><path d="M 11.81104 1533 L 15.73817 1533" stroke="#000000" stroke-width="1" stroke-linecap="round" stroke-linejoin="round"/></g></g></svg>