<?xml version = "1.0" standalone = "no"?>
<svg xmlns="http://www.w3.org/2000/svg" xmlns:xlink="http://www.w3.org/1999/xlink" font-family="Arial" viewBox="9 1359 32 32" width="32" height="32"><g><g fill="none"><path d="M 37.87868 1371.292893 L 38.585786 1370.585786 L 29.393398 1361.393398 L 28.686292 1362.100505 A 5.419811 5.419811 0 0 0 29.393398 1365.636039 L 22.524092 1372.505345 A 9 9 0 0 0 15.272078 1372.727922 L 14.564971 1373.435029 L 26.564971 1385.435029 L 27.272078 1384.727922 A 9 9 0 0 0 27.482626 1377.446306 L 34.343146 1370.585786 A 5.419811 5.419811 0 0 0 37.87868 1371.292893" stroke="#000000" stroke-width="2" stroke-linecap="round" stroke-linejoin="round"/></g></g><path transform="matrix(-0.707107 -0.707107 0.707107 -0.707107 13.129942 1387.556349)" d="M 0.5 0 L 1 10 L 0 10 Z" fill-rule="evenodd" fill="none" stroke="#000000" stroke-width="2" stroke-linecap="butt" stroke-linejoin="round"/></svg>