<?xml version = "1.0" standalone = "no"?>
<svg xmlns="http://www.w3.org/2000/svg" xmlns:xlink="http://www.w3.org/1999/xlink" font-family="Arial" viewBox="530 1160 32 32" width="32" height="32"><path transform="matrix(1 0 0 1 532 1162)" d="M 12.354476 0.097042 C 12.62748 0.064729 12.901376 0.040466 13.175809 0.024281 C 13.450241 0.008097 13.725091 0 14 0 C 14.274909 0 14.549759 0.008097 14.824191 0.024281 C 15.098624 0.040466 15.37252 0.064729 15.645524 0.097042 L 16.334454 4.276301 C 16.561753 4.405421 16.792997 4.52747 17.027854 4.642269 C 17.262712 4.757069 17.501069 4.864566 17.742583 4.964604 C 17.984098 5.064643 18.228654 5.157175 18.475898 5.242069 C 18.723143 5.326962 18.972959 5.404176 19.224986 5.473598 L 22.667315 3.005563 C 22.883206 3.175758 23.094037 3.352274 23.299534 3.534883 C 23.505031 3.717493 23.705105 3.906115 23.899495 4.100505 C 24.093885 4.294895 24.282507 4.494969 24.465117 4.700466 C 24.647726 4.905963 24.824242 5.116794 24.994437 5.332685 L 22.526402 8.775014 C 22.595824 9.027041 22.673038 9.276857 22.757931 9.524102 C 22.842825 9.771346 22.935357 10.015902 23.035396 10.257417 C 23.135434 10.498931 23.242931 10.737288 23.357731 10.972146 C 23.47253 11.207003 23.594579 11.438247 23.723699 11.665546 L 27.902958 12.354476 C 27.935271 12.62748 27.959534 12.901376 27.975719 13.175809 C 27.991903 13.450241 28 13.725091 28 14 C 28 14.274909 27.991903 14.549759 27.975719 14.824191 C 27.959534 15.098624 27.935271 15.37252 27.902958 15.645524 L 23.723699 16.334454 C 23.594579 16.561753 23.47253 16.792997 23.357731 17.027854 C 23.242931 17.262712 23.135434 17.501069 23.035396 17.742583 C 22.935357 17.984098 22.842825 18.228654 22.757931 18.475898 C 22.673038 18.723143 22.595824 18.972959 22.526402 19.224986 L 24.994437 22.667315 C 24.824242 22.883206 24.647726 23.094037 24.465117 23.299534 C 24.282507 23.505031 24.093885 23.705105 23.899495 23.899495 C 23.705105 24.093885 23.505031 24.282507 23.299534 24.465117 C 23.094037 24.647726 22.883206 24.824242 22.667315 24.994437 L 19.224986 22.526402 C 18.972959 22.595824 18.723143 22.673038 18.475898 22.757931 C 18.228654 22.842825 17.984098 22.935357 17.742583 23.035396 C 17.501069 23.135434 17.262712 23.242931 17.027854 23.357731 C 16.792997 23.47253 16.561753 23.594579 16.334454 23.723699 L 15.645524 27.902958 C 15.37252 27.935271 15.098624 27.959534 14.824191 27.975719 C 14.549759 27.991903 14.274909 28 14 28 C 13.725091 28 13.450241 27.991903 13.175809 27.975719 C 12.901376 27.959534 12.62748 27.935271 12.354476 27.902958 L 11.665546 23.723699 C 11.438247 23.594579 11.207003 23.47253 10.972146 23.357731 C 10.737288 23.242931 10.498931 23.135434 10.257417 23.035396 C 10.015902 22.935357 9.771346 22.842825 9.524102 22.757931 C 9.276857 22.673038 9.027041 22.595824 8.775014 22.526402 L 5.332685 24.994437 C 5.116794 24.824242 4.905963 24.647726 4.700466 24.465117 C 4.494969 24.282507 4.294895 24.093885 4.100505 23.899495 C 3.906115 23.705105 3.717493 23.505031 3.534883 23.299534 C 3.352274 23.094037 3.175758 22.883206 3.005563 22.667315 L 5.473598 19.224986 C 5.404176 18.972959 5.326962 18.723143 5.242069 18.475898 C 5.157175 18.228654 5.064643 17.984098 4.964604 17.742583 C 4.864566 17.501069 4.757069 17.262712 4.642269 17.027854 C 4.52747 16.792997 4.405421 16.561753 4.276301 16.334454 L 0.097042 15.645524 C 0.064729 15.37252 0.040466 15.098624 0.024281 14.824191 C 0.008097 14.549759 0 14.274909 0 14 C 0 13.725091 0.008097 13.450241 0.024281 13.175809 C 0.040466 12.901376 0.064729 12.62748 0.097042 12.354476 L 4.276301 11.665546 C 4.405421 11.438247 4.52747 11.207003 4.642269 10.972146 C 4.757069 10.737288 4.864566 10.498931 4.964604 10.257417 C 5.064643 10.015902 5.157175 9.771346 5.242069 9.524102 C 5.326962 9.276857 5.404176 9.027041 5.473598 8.775014 L 3.005563 5.332685 C 3.175758 5.116794 3.352274 4.905963 3.534883 4.700466 C 3.717493 4.494969 3.906115 4.294895 4.100505 4.100505 C 4.294895 3.906115 4.494969 3.717493 4.700466 3.534883 C 4.905963 3.352274 5.116794 3.175758 5.332685 3.005563 L 8.775014 5.473598 C 9.027041 5.404176 9.276857 5.326962 9.524102 5.242069 C 9.771346 5.157175 10.015902 5.064643 10.257417 4.964604 C 10.498931 4.864566 10.737288 4.757069 10.972146 4.642269 C 11.207003 4.52747 11.438247 4.405421 11.665546 4.276301 Z" fill-rule="evenodd" fill="none" stroke="#000000" stroke-width="2" stroke-linecap="round" stroke-linejoin="round"/></svg>