<?xml version = "1.0" standalone = "no"?>
<svg xmlns="http://www.w3.org/2000/svg" xmlns:xlink="http://www.w3.org/1999/xlink" font-family="Arial" viewBox="0 0 32 32" width="32" height="32"><rect width="32" height="32" fill="none" stroke="none"/><path transform="matrix(1 0 0 1 2 2)" d="M 7 5 L 11 5 L 14 0 L 17 5 L 21 5 C 22.10456 5 23 5.89544 23 7 L 23 11 L 28 14 L 23 17 L 23 21 C 23 22.10456 22.10456 23 21 23 L 17 23 L 14 28 L 11 23 L 7 23 C 5.89544 23 5 22.10456 5 21 L 5 17 L 0 14 L 5 11 L 5 7 C 5 5.89544 5.89544 5 7 5 Z" fill-rule="evenodd" fill="none" stroke="#000000" stroke-width="2" stroke-linecap="butt" stroke-linejoin="round"/></svg>