<?xml version = "1.0" standalone = "no"?>
<svg xmlns="http://www.w3.org/2000/svg" xmlns:xlink="http://www.w3.org/1999/xlink" font-family="Arial" viewBox="-96 1407 32 32" width="32" height="32"><rect width="26" height="26" transform="matrix(1 0 0 1 -93 1410)" fill="#ffffff" stroke="#000000" stroke-width="2" stroke-linecap="butt" stroke-linejoin="round"/><g><g fill="none"><path d="M -88 1436 L -88 1421" stroke="#000000" stroke-width="2" stroke-linecap="round" stroke-linejoin="round"/></g></g><g><g fill="none"><path d="M -84 1436 L -84 1425" stroke="#000000" stroke-width="2" stroke-linecap="round" stroke-linejoin="round"/></g></g><g><g fill="none"><path d="M -80 1436 L -80 1429" stroke="#000000" stroke-width="2" stroke-linecap="round" stroke-linejoin="round"/></g></g><g><g fill="none"><path d="M -76 1436 L -76 1433" stroke="#000000" stroke-width="2" stroke-linecap="round" stroke-linejoin="round"/></g></g><g><g fill="none"><path d="M -72 1436 L -72 1435" stroke="#000000" stroke-width="2" stroke-linecap="round" stroke-linejoin="round"/></g></g><ellipse cx="1" cy="1" rx="1" ry="1" transform="matrix(1 0 0 1 -89 1414)" fill="#000000" stroke="none"/><g><g fill="none"><path d="M -67 1431 L -68 1431" stroke="#000000" stroke-width="2" stroke-linecap="round" stroke-linejoin="round"/></g></g><g><g fill="none"><path d="M -67 1427 L -70 1427" stroke="#000000" stroke-width="2" stroke-linecap="round" stroke-linejoin="round"/></g></g><g><g fill="none"><path d="M -67 1423 L -74 1423" stroke="#000000" stroke-width="2" stroke-linecap="round" stroke-linejoin="round"/></g></g><g><g fill="none"><path d="M -67 1419 L -78 1419" stroke="#000000" stroke-width="2" stroke-linecap="round" stroke-linejoin="round"/></g></g><g><g fill="none"><path d="M -67 1415 L -82 1415" stroke="#000000" stroke-width="2" stroke-linecap="round" stroke-linejoin="round"/></g></g><ellipse cx="1" cy="1" rx="1" ry="1" transform="matrix(1 0 0 1 -85 1418)" fill="#000000" stroke="none"/><ellipse cx="1" cy="1" rx="1" ry="1" transform="matrix(1 0 0 1 -81 1422)" fill="#000000" stroke="none"/><ellipse cx="1" cy="1" rx="1" ry="1" transform="matrix(1 0 0 1 -77 1426)" fill="#000000" stroke="none"/><ellipse cx="1" cy="1" rx="1" ry="1" transform="matrix(1 0 0 1 -73 1430)" fill="#000000" stroke="none"/></svg>