<?xml version = "1.0" standalone = "no"?>
<svg xmlns="http://www.w3.org/2000/svg" xmlns:xlink="http://www.w3.org/1999/xlink" font-family="Arial" viewBox="3700 5350 32 32" width="32" height="32"><path transform="matrix(1 0 0 1 3709.125 5352.25)" d="M 13.875 0 C 12.065160222891103 0.0062683421002244595 10.273900196208091 0.3653035173075506 8.601448916119157 1.0570159045373533 C 6.928997636030207 1.7487282917671627 5.407435265279644 2.759849793934189 4.121900012031459 4.0338036485044615 C 2.836364758783273 5.307757503074734 1.8115151471025606 6.820107334848612 1.1046960885442854 8.486230418350285 C 0.39787702998601815 10.15235350185194 0.022646390599423222 11.940291058785672 0 13.75 C 0.022646390599424478 15.559708941214321 0.39787702998602215 17.347646498148077 1.104696088544289 19.013769581649726 C 1.811515147102563 20.679892665151392 2.8363647587832705 22.192242496925257 4.12190001203145 23.466196351495526 C 5.407435265279624 24.74015020606579 6.928997636030211 25.751271708232835 8.601448916119146 26.44298409546264 C 10.273900196208091 27.13469648269245 12.065160222891087 27.493731657899776 13.875 27.5 L 13.875 21.75 C 12.858735493005533 21.642153980202774 11.868262504433064 21.3620059134821 10.946067811865483 20.921572875253815 C 10.023873119297894 20.48113983702553 9.183428919135858 19.886856043882048 8.460786437626908 19.1642135623731 C 7.7381439561179475 18.44157108086414 7.143860162974485 17.601126880702125 6.703427124746192 16.678932188134524 C 6.262994086517903 15.756737495566934 5.982846019797229 14.766264506994482 5.875 13.75 C 5.9828460197972255 12.733735493005522 6.2629940865178995 11.74326250443307 6.703427124746188 10.821067811865479 C 7.143860162974476 9.89887311929789 7.738143956117953 9.05842891913586 8.460786437626904 8.335786437626908 C 9.183428919135856 7.613143956117956 10.023873119297884 7.018860162974479 10.946067811865474 6.578427124746192 C 11.868262504433064 6.137994086517903 12.85873549300552 5.857846019797227 13.875 5.75 Z" fill-rule="evenodd" fill="none" stroke="#000000" stroke-width="2" stroke-linecap="round" stroke-linejoin="round"/></svg>