<?xml version = "1.0" standalone = "no"?>
<svg xmlns="http://www.w3.org/2000/svg" xmlns:xlink="http://www.w3.org/1999/xlink" font-family="Arial" viewBox="54 142 32 32" width="32" height="32"><path transform="matrix(1 0 0 1 63.12499999999997 144.24999999999994)" d="M 13.875000000000028 0 L 8.875000000000028 0 C 7.922067040452895 0.09323973994699675 6.994639088403085 0.362137501918229 6.139623206780392 0.7930930874135473 C 5.2846073251577 1.2240486729088655 4.516788109890953 1.8096101686576915 3.875000000000046 2.520161290322628 C 3.233211890109134 3.230712411987571 2.728552431359715 4.053966591042367 2.3865460787106327 4.948285622062243 C 2.0445397260615508 5.842604653082117 1.8711003178843446 6.79252432564794 1.8750000000000284 7.750000000000057 C 2.047822154286902 8.282355130694778 2.137359135247632 8.838215299326137 2.1404427135817867 9.397911622106632 C 2.1435262919159412 9.957607944887132 2.06011944738626 10.514420926341439 1.893173496933069 11.048647967791641 C 1.7262275464798775 11.582875009241844 1.4777467779875861 12.088102389457832 1.1565235814037038 12.546452845076445 C 0.8353003848198253 13.004803300695052 0.4451912403965264 13.4107740551439 0 13.750000000000057 C 0.44037999357212904 14.09329487520459 0.8261236585739635 14.501420460325308 1.144061268620515 14.960442884830007 C 1.4619988786670666 15.419465309334706 1.708449827464679 15.92407069788692 1.8750000000000338 16.457031250000046 C 2.041550172535388 16.989991802113174 2.1262714999236696 17.545137697355806 2.1262714999236687 18.103515625000053 C 2.126271499923668 18.6618935526443 2.041550172535385 19.21703944788693 1.8750000000000284 19.750000000000057 C 1.8711003178843357 20.70747567435217 2.044539726061541 21.657395346918012 2.3865460787106176 22.55171437793788 C 2.7285524313596943 23.44603340895775 3.2332118901091143 24.269287588012553 3.8750000000000213 24.979838709677487 C 4.51678810989093 25.690389831342426 5.2846073251576895 26.275951327091256 6.139623206780387 26.706906912586568 C 6.994639088403089 27.137862498081883 7.922067040452893 27.4067602600531 8.875000000000028 27.500000000000085 L 13.875000000000028 27.500000000000085 L 13.875000000000028 21.750000000000057 L 8.875000000000028 21.750000000000057 C 8.634824691988548 21.484274127306506 8.428144759148848 21.19009584374397 8.259588475983472 20.874052812808888 C 8.091032192818096 20.558009781873807 7.961871919919075 20.22248767967624 7.875000000000028 19.875000000000057 C 7.788128080080982 19.527512320323872 7.744200272781264 19.17068210172648 7.744200272781264 18.812500000000057 C 7.744200272781264 18.45431789827364 7.788128080080985 18.09748767967623 7.875000000000028 17.750000000000057 C 8.030550635573677 17.357616913050965 8.101549989512518 16.93682582884811 8.083357918288542 16.51512743461872 C 8.065165847064565 16.093429040389328 7.958191852497306 15.680315727494825 7.769427190999945 15.302786404500102 C 7.580662529502584 14.92525708150538 7.314356275927335 14.59180989811487 6.987912803278208 14.324237204598052 C 6.6614693306290835 14.056664511081237 6.282236850903491 13.860989343710592 5.875000000000028 13.750000000000057 C 6.2822368509034945 13.639010656289521 6.66146933062908 13.44333548891888 6.987912803278208 13.175762795402061 C 7.3143562759273335 12.908190101885246 7.580662529502583 12.574742918494735 7.769427190999943 12.197213595500015 C 7.958191852497304 11.819684272505294 8.065165847064565 11.40657095961079 8.083357918288542 10.984872565381396 C 8.101549989512518 10.563174171152006 8.030550635573677 10.142383086949147 7.875000000000028 9.750000000000057 C 7.788128080080985 9.402512320323881 7.744200272781264 9.045682101726474 7.744200272781264 8.687500000000057 C 7.744200272781264 8.329317898273631 7.788128080080982 7.972487679676241 7.875000000000028 7.625000000000057 C 7.961871919919072 7.277512320323881 8.091032192818098 6.9419902181263025 8.25958847598347 6.625947187191228 C 8.428144759148843 6.309904156256155 8.634824691988555 6.0157258726936025 8.875000000000028 5.750000000000057 L 13.875000000000028 5.750000000000057 Z" fill-rule="evenodd" fill="none" stroke="#000000" stroke-width="2" stroke-linecap="round" stroke-linejoin="round"/></svg>