<?xml version = "1.0" standalone = "no"?>
<svg xmlns="http://www.w3.org/2000/svg" xmlns:xlink="http://www.w3.org/1999/xlink" font-family="Arial" viewBox="-96 1617 32 32" width="32" height="32"><path d="M 25.606602 4.393398 A 15 15 0 0 1 4.393398 25.606602 L 10.050253 19.949747 A 7 7 0 0 0 19.949747 10.050253 z" transform="matrix(0 -1 1 0 -97.83023 1651)" fill="#ffffff" stroke="#000000" stroke-width="2" stroke-linecap="butt" stroke-linejoin="round"/><path d="M 25.606602 4.393398 A 15 15 0 0 1 4.393398 25.606602 L 11.464466 18.535534 A 5 5 0 0 0 18.535534 11.464466 z" transform="matrix(0 -1 1 0 -97.83023 1651)" fill="#ffffff" stroke="#000000" stroke-width="2" stroke-linecap="butt" stroke-linejoin="round"/><g><g fill="none"><path d="M -69.622287 1639.539058 L -72.205046 1638.847009" stroke="#000000" stroke-width="2" stroke-linecap="round" stroke-linejoin="round"/></g></g><g><g fill="none"><path d="M -68.341343 1632.117714 L -70.756157 1632.764762" stroke="#000000" stroke-width="2" stroke-linecap="round" stroke-linejoin="round"/></g></g><g><g fill="none"><path d="M -72.223628 1625.393398 L -75.052056 1628.221825" stroke="#000000" stroke-width="2" stroke-linecap="round" stroke-linejoin="round"/></g></g><g><g fill="none"><path d="M -78.947944 1621.511113 L -79.594992 1623.925927" stroke="#000000" stroke-width="2" stroke-linecap="round" stroke-linejoin="round"/></g></g><g><g fill="none"><path d="M -86.712516 1621.511113 L -85.67226 1625.393398" stroke="#000000" stroke-width="2" stroke-linecap="round" stroke-linejoin="round"/></g></g><ellipse cx="1" cy="1" rx="1" ry="1" transform="matrix(0 -1 1 0 -78 1631.16977)" fill="#000000" stroke="none"/><ellipse cx="1" cy="1" rx="1" ry="1" transform="matrix(0 -1 1 0 -76 1639.098104)" fill="#000000" stroke="none"/><ellipse cx="1" cy="1" rx="1" ry="1" transform="matrix(0 -1 1 0 -85.928334 1629.16977)" fill="#000000" stroke="none"/><ellipse cx="4.83023" cy="4.83023" rx="4.83023" ry="4.83023" transform="matrix(0 -1 1 0 -87.66046 1640.83023)" fill="#ffffff" stroke="#000000" stroke-width="2" stroke-linecap="butt" stroke-linejoin="round"/></svg>