<?xml version = "1.0" standalone = "no"?>
<svg xmlns="http://www.w3.org/2000/svg" xmlns:xlink="http://www.w3.org/1999/xlink" font-family="Arial" viewBox="-96 1365 32 32" width="32" height="32"><rect width="26" height="16" transform="matrix(1 0 0 1 -93 1373)" fill="#ffffff" stroke="#000000" stroke-width="2" stroke-linecap="butt" stroke-linejoin="round"/><g><g fill="none"><path d="M -88 1389 L -88 1381" stroke="#000000" stroke-width="2" stroke-linecap="round" stroke-linejoin="round"/></g></g><g><g fill="none"><path d="M -84 1389 L -84 1383" stroke="#000000" stroke-width="2" stroke-linecap="round" stroke-linejoin="round"/></g></g><g><g fill="none"><path d="M -80 1389 L -80 1381" stroke="#000000" stroke-width="2" stroke-linecap="round" stroke-linejoin="round"/></g></g><g><g fill="none"><path d="M -76 1389 L -76 1383" stroke="#000000" stroke-width="2" stroke-linecap="round" stroke-linejoin="round"/></g></g><g><g fill="none"><path d="M -72 1389 L -72 1381" stroke="#000000" stroke-width="2" stroke-linecap="round" stroke-linejoin="round"/></g></g><ellipse cx="1" cy="1" rx="1" ry="1" transform="matrix(1 0 0 1 -89 1376)" fill="#000000" stroke="none"/><ellipse cx="1" cy="1" rx="1" ry="1" transform="matrix(1 0 0 1 -81 1376)" fill="#000000" stroke="none"/><ellipse cx="1" cy="1" rx="1" ry="1" transform="matrix(1 0 0 1 -73 1376)" fill="#000000" stroke="none"/></svg>