<?xml version = "1.0" standalone = "no"?>
<svg xmlns="http://www.w3.org/2000/svg" xmlns:xlink="http://www.w3.org/1999/xlink" font-family="Arial" viewBox="-96 315 32 32" width="32" height="32"><g><clipPath id="clip-nhiuVk0glxYtB" stroke-width="2"><path clip-rule="evenodd" d="M -92.052632 317.947368 L -67.493992 317.947368 L -67.493992 330.052632 L -92.052632 330.052632 M -69 329 L -68.546623 321.410899 L -74.799255 324.083838 Z"/></clipPath><g fill="none" clip-path="url(#clip-nhiuVk0glxYtB)"><path d="M -91 329 A 11.05 11.05 0 0 1 -69 329" stroke="#000000" stroke-width="2" stroke-linecap="round" stroke-linejoin="round"/></g><g fill="#000000" stroke="#000000" stroke-width="2" stroke-linecap="round" stroke-linejoin="round"><path d="M -69 329 L -68.546623 321.410899 L -74.799255 324.083838 Z"/></g></g><g><clipPath id="clip-n9qUQRMAaqVUF" stroke-width="2"><path clip-rule="evenodd" d="M -92.506008 331.947368 L -67.947368 331.947368 L -67.947368 344.052632 L -92.506008 344.052632 M -91 333 L -91.453377 340.589101 L -85.200745 337.916162 Z"/></clipPath><g fill="none" clip-path="url(#clip-n9qUQRMAaqVUF)"><path d="M -69 333 A 11.05 11.05 0 0 1 -91 333" stroke="#000000" stroke-width="2" stroke-linecap="round" stroke-linejoin="round"/></g><g fill="#000000" stroke="#000000" stroke-width="2" stroke-linecap="round" stroke-linejoin="round"><path d="M -91 333 L -91.453377 340.589101 L -85.200745 337.916162 Z"/></g></g></svg>