<?xml version = "1.0" standalone = "no"?>
<svg xmlns="http://www.w3.org/2000/svg" xmlns:xlink="http://www.w3.org/1999/xlink" font-family="Arial" viewBox="550 2100 32 32" width="32" height="32"><path transform="matrix(-0.707107 -0.707107 0.707107 -0.707107 554.129942 2128.556349)" d="M 0.5 0 L 1 10 L 0 10 Z" fill-rule="evenodd" fill="none" stroke="#000000" stroke-width="2" stroke-linecap="butt" stroke-linejoin="round"/><g><g fill="none"><path d="M 553 2103 L 578.87868 2129" stroke="#000000" stroke-width="2" stroke-linecap="round" stroke-linejoin="round"/></g></g><g clip-path="url(#clip-nHfgh2kYW1eYW-nBtimUDaTpt0s)"><g><g fill="none"><path d="M 578.87868 2112.292893 L 579.585786 2111.585786 L 570.393398 2102.393398 L 569.686292 2103.100505 A 5.419811 5.419811 0 0 0 570.393398 2106.636039 L 563.524092 2113.505345 A 9 9 0 0 0 556.272078 2113.727922 L 555.564971 2114.435029 L 567.564971 2126.435029 L 568.272078 2125.727922 A 9 9 0 0 0 568.482626 2118.446306 L 575.343146 2111.585786 A 5.419811 5.419811 0 0 0 578.87868 2112.292893" stroke="#000000" stroke-width="2" stroke-linecap="round" stroke-linejoin="round"/></g></g></g><clipPath id="clip-nHfgh2kYW1eYW-nBtimUDaTpt0s"><path d="M 555.6360389693222 2109.3284271247444 L 559.3284271247456 2105.636038969321 L 575.6923881554246 2122 L 572.0000000000011 2125.6923881554235 Z M 454.5123395785082 2227.4876604214915 L 680.6384180165743 2227.4876604214915 L 680.6384180165743 2001.3407667032543 L 454.5123395785082 2001.3407667032543 Z" clip-rule="evenodd"/></clipPath></svg>