<?xml version = "1.0" standalone = "no"?>
<svg xmlns="http://www.w3.org/2000/svg" xmlns:xlink="http://www.w3.org/1999/xlink" font-family="Arial" viewBox="-96 399 32 32" width="32" height="32"><g><g fill="none"><path d="M -91 403.25 L -67 413.75" stroke="#000000" stroke-width="2" stroke-linecap="round" stroke-linejoin="round"/></g></g><g><g fill="none"><path d="M -90.428571 429 L -86.428571 401" stroke="#000000" stroke-width="2" stroke-linecap="round" stroke-linejoin="round"/></g></g><ellipse cx="0" cy="0" rx="3" ry="3" transform="matrix(1 0 0 1 -87 405)" fill="#ffffff" stroke="#000000" stroke-width="1" stroke-linecap="butt" stroke-linejoin="round"/><g><g fill="none"><path d="M -69.285714 408 L -80 429" stroke="#000000" stroke-width="2" stroke-linecap="round" stroke-linejoin="round"/></g></g><ellipse cx="0" cy="0" rx="3" ry="3" transform="matrix(1 0 0 1 -71 412)" fill="#ffffff" stroke="#000000" stroke-width="1" stroke-linecap="butt" stroke-linejoin="round"/><g><g fill="none"><path d="M -74 425 L -94 425" stroke="#000000" stroke-width="2" stroke-linecap="round" stroke-linejoin="round"/></g></g><ellipse cx="0" cy="0" rx="3" ry="3" transform="matrix(1 0 0 1 -78 425)" fill="#ffffff" stroke="#000000" stroke-width="1" stroke-linecap="butt" stroke-linejoin="round"/><ellipse cx="0" cy="0" rx="3" ry="3" transform="matrix(1 0 0 1 -90 425)" fill="#ffffff" stroke="#000000" stroke-width="1" stroke-linecap="butt" stroke-linejoin="round"/><g><g fill="none"><path d="M -77.5 415.5 L -68.5 424.5" stroke="#000000" stroke-width="4" stroke-linecap="round" stroke-linejoin="round"/></g></g></svg>