<?xml version = "1.0" standalone = "no"?>
<svg xmlns="http://www.w3.org/2000/svg" xmlns:xlink="http://www.w3.org/1999/xlink" font-family="Arial" viewBox="9 1109 32 32" width="32" height="32"><g><g fill="none"><path d="M 19.317705 1129.60049 L 16.677907 1133.513036" stroke="#000000" stroke-width="2" stroke-linecap="round" stroke-linejoin="round"/></g></g><ellipse cx="5.259174" cy="5.259174" rx="5.259174" ry="5.259174" transform="matrix(1 0 0 1 17 1119.981651)" fill="none" stroke="#000000" stroke-width="2" stroke-linecap="butt" stroke-linejoin="round"/><g><g fill="none"><path d="M 31.692937 1133.08233 L 26.30359 1128.602613" stroke="#000000" stroke-width="2" stroke-linecap="butt" stroke-linejoin="round"/></g></g><g><g fill="none"><path d="M 15.599978 1116.420429 L 19.090316 1121.043534" stroke="#000000" stroke-width="2" stroke-linecap="round" stroke-linejoin="round"/></g></g><ellipse cx="3" cy="3" rx="3" ry="3" transform="matrix(1 0 0 1 31 1132)" fill="none" stroke="#000000" stroke-width="2" stroke-linecap="butt" stroke-linejoin="round"/><g><g fill="none"><path d="M 35.668705 1119.981651 L 34.331295 1132.018349" stroke="#000000" stroke-width="2" stroke-linecap="round" stroke-linejoin="round"/></g></g><ellipse cx="3" cy="3" rx="3" ry="3" transform="matrix(1 0 0 1 12 1132.999927)" fill="none" stroke="#000000" stroke-width="2" stroke-linecap="butt" stroke-linejoin="round"/><ellipse cx="2.870431" cy="2.870431" rx="2.870431" ry="2.870431" transform="matrix(1 0 0 1 11 1111.259138)" fill="none" stroke="#000000" stroke-width="2" stroke-linecap="butt" stroke-linejoin="round"/><ellipse cx="3" cy="3" rx="3" ry="3" transform="matrix(1 0 0 1 33 1114)" fill="none" stroke="#000000" stroke-width="2" stroke-linecap="butt" stroke-linejoin="round"/></svg>