<?xml version = "1.0" standalone = "no"?>
<svg xmlns="http://www.w3.org/2000/svg" viewBox="0 0 64 64" font-family="sans-serif" xmlns:xlink="http://www.w3.org/1999/xlink"><g><rect fill="rgb(255,255,255)" fill-opacity="1" stroke="rgb(0,0,0)" stroke-opacity="0" stroke-width="1" x="0" y="0" width="64" height="64"/><path stroke-linejoin="round" fill="rgb(76.5,76.5,76.5)" fill-opacity="1" stroke="rgb(0,0,0)" stroke-opacity="1" stroke-width="1" d="M4,12 l0,10 l4,0 l0,34 l-4,0 l0,4 l56,0 l0,-4 l-4,0 l0,-34 l4,0 l0,-10 a10 3 0 0 0 -56,0 M14,22 l4,4 l4,-4 l0,34 l-8,0 Z M 28 22 l 4 4 l 4 -4 l 0 34 l -8 0 Z M 42 22 l 4 4 l 4 -4 l 0 34 l -8 0 Z"/></g></svg>
